<svg xmlns="http://www.w3.org/2000/svg" version="1.1" xmlns:xlink="http://www.w3.org/1999/xlink" xmlns:svgjs="http://svgjs.dev/svgjs" width="1000" height="1125" viewBox="0 0 1000 1125"><g transform="matrix(1,0,0,1,0.0011008540699322111,0)"><svg viewBox="0 0 320 360" data-background-color="#000000" preserveAspectRatio="xMidYMid meet" height="1125" width="1000" xmlns="http://www.w3.org/2000/svg" xmlns:xlink="http://www.w3.org/1999/xlink"><g id="tight-bounds" transform="matrix(1,0,0,1,0.00010353528136874957,0)"><svg viewBox="0 0 320 360" height="360" width="320"><g><svg></svg></g><g><svg viewBox="0 0 320 360" height="360" width="320"><g><path xmlns="http://www.w3.org/2000/svg" d="M307.925 179.999l6.575-11.387c11.322-19.607 4.604-44.679-15.003-56.001l-11.387-6.575v-13.151c0-22.639-18.354-40.994-40.994-40.994h-13.151l-6.575-11.387c-11.322-19.607-36.393-26.325-56.001-15.003l-11.39 6.572-11.387-6.576c-19.607-11.318-44.679-4.6-56.001 15.007l-6.575 11.387h-13.151c-22.639 0-40.994 18.354-40.994 40.994v13.151l-11.387 6.575c-19.607 11.322-26.325 36.393-15.003 56.001l6.572 11.387-6.576 11.387c-11.318 19.607-4.6 44.679 15.007 56l11.387 6.576v13.15c0 22.639 18.354 40.994 40.994 40.994h13.151l6.575 11.387c11.322 19.607 36.393 26.325 56.001 15.003l11.387-6.571 11.387 6.575c19.607 11.322 44.679 4.604 56-15.003l6.576-11.387h13.15c22.639 0 40.994-18.354 40.994-40.994v-13.151l11.387-6.575c19.607-11.322 26.325-36.393 15.003-56.001zM297.702 115.716c8.655 4.996 14.842 13.062 17.428 22.713 2.586 9.65 1.261 19.734-3.735 28.384l-5.538 9.596-17.747-30.74v-35.494zM251.155 271.155l-57.791 33.365h-66.731l-57.791-33.365-33.365-57.791v-66.731l33.365-57.791 57.791-33.365h66.731l57.791 33.365 33.365 57.791v66.731zM284.517 220.539v31.351l-27.151 15.676zM247.566 277.366l-15.676 27.151h-31.351zM187.15 308.106l-27.151 15.676-27.151-15.676zM119.459 304.517h-31.352l-15.676-27.151zM62.632 267.566l-27.151-15.676v-31.351zM31.891 207.15l-15.675-27.151 15.675-27.151zM35.481 139.459v-31.352l27.151-15.676zM72.431 82.632l15.676-27.151h31.352zM132.848 51.891l27.151-15.675 27.151 15.675zM200.539 55.481h31.351l15.676 27.151zM257.366 92.431l27.151 15.676v31.352zM288.106 152.848l15.676 27.151-15.676 27.151zM247.112 55.481c9.992 0 19.384 3.889 26.452 10.956 7.063 7.063 10.956 16.46 10.957 26.452v11.079l-30.741-17.747-17.747-30.74zM173.18 28.606c8.655-4.996 18.735-6.322 28.385-3.735 9.65 2.586 17.716 8.777 22.712 17.428l5.538 9.596h-35.494l-30.741-17.747zM95.716 42.295c4.996-8.655 13.062-14.842 22.713-17.428 9.65-2.586 19.734-1.261 28.384 3.736l9.596 5.537-30.74 17.747h-35.494zM35.481 92.885c0-9.992 3.889-19.384 10.956-26.452 7.063-7.063 16.46-10.956 26.452-10.956h11.079l-17.747 30.74-30.74 17.747zM8.606 166.817c-4.996-8.655-6.322-18.735-3.735-28.385 2.586-9.65 8.777-17.716 17.428-22.712l9.596-5.538v35.495l-17.747 30.74zM22.295 244.281c-8.655-4.996-14.842-13.062-17.428-22.712-2.586-9.65-1.261-19.734 3.736-28.385l5.537-9.596 17.747 30.74v35.495zM72.885 304.517c-9.992 0-19.384-3.889-26.452-10.957-7.063-7.063-10.956-16.46-10.956-26.451v-11.08l30.74 17.747 17.747 30.741zM146.817 331.391c-8.655 4.996-18.735 6.322-28.385 3.735-9.65-2.586-17.716-8.777-22.712-17.428l-5.538-9.596h35.495l30.74 17.747zM224.281 317.702c-4.996 8.655-13.062 14.842-22.712 17.428-9.65 2.586-19.734 1.261-28.385-3.735l-9.596-5.538 30.74-17.747h35.495zM284.517 267.112c0 9.992-3.889 19.384-10.957 26.452-7.063 7.063-16.46 10.956-26.451 10.957h-11.08l17.747-30.741 30.741-17.747zM315.13 221.565c-2.586 9.65-8.777 17.716-17.428 22.712l-9.596 5.538v-35.494l17.747-30.741 5.538 9.596c4.996 8.658 6.326 18.739 3.739 28.389z" fill="#fbcd08" fill-rule="nonzero" stroke="none" stroke-width="1" stroke-linecap="butt" stroke-linejoin="miter" stroke-miterlimit="10" stroke-dasharray="" stroke-dashoffset="0" font-family="none" font-weight="none" font-size="none" text-anchor="none" style="mix-blend-mode: normal" data-fill-palette-color="tertiary"></path></g><g transform="matrix(1,0,0,1,64,143.24655436447168)"><svg viewBox="0 0 192 73.50689127105666" height="73.50689127105666" width="192"><g><svg viewBox="0 0 192 73.50689127105666" height="73.50689127105666" width="192"><g><svg viewBox="0 0 192 73.50689127105666" height="73.50689127105666" width="192"><g><svg viewBox="0 0 192 73.50689127105666" height="73.50689127105666" width="192"><g><svg viewBox="0 0 192 73.50689127105666" height="73.50689127105666" width="192"><g transform="matrix(1,0,0,1,0,0)"><svg width="192" viewBox="3.200000047683716 -25 65.30000305175781 25" height="73.50689127105666" data-palette-color="#fbcd08"><path d="M20.75-14.95L20.75-14.95 25.45-14.65Q26.15-14.65 26.5-14.7L26.5-14.7 24.15-10.3 23.7-10.3Q22.75-10.3 21-10.83 19.25-11.35 18.5-11.35L18.5-11.35Q16.45-11.35 15.25-8.7L15.25-8.7Q15.05-6.25 14.95-3.8L14.95-3.8Q17.55-3.3 19.05-3.3L19.05-3.3 19.5-3.3Q21.65-3.3 22.93-4.25 24.2-5.2 24.75-7.65L24.75-7.65 30.75-7.4Q30-3.1 28.75 0L28.75 0 4.2 0Q3.2-6.75 3.2-13.4 3.2-20.05 3.9-25L3.9-25 30.7-25Q29.8-19.6 29.1-17.4L29.1-17.4Q26.15-17.25 23.7-17.2L23.7-17.2Q24.1-18.35 24.1-19.35L24.1-19.35Q24.1-21.75 20.5-21.75L20.5-21.75Q19.15-21.75 17.5-21.45L17.5-21.45Q16.4-16.7 15.8-13.1L15.8-13.1Q17.8-14.95 20.75-14.95ZM68.5-20.85L68.5-20.85Q68.5-11.05 66.6 0L66.6 0 54.65 0Q55.45-5.9 55.7-12.7L55.7-12.7Q53.1-14.3 49.9-14.65L49.9-14.65Q49.6-7.3 48.3 0L48.3 0 36.95 0Q37.6-4.9 37.6-11.73 37.6-18.55 36.7-25L36.7-25 49.9-25Q50-22.95 50-18.9L50-18.9Q52.9-18 55.75-16.45L55.75-16.45Q55.75-21.1 55.4-25L55.4-25 68.4-25Q68.5-22.2 68.5-20.85Z" opacity="1" transform="matrix(1,0,0,1,0,0)" fill="#fbcd08" class="undefined-text-0" data-fill-palette-color="primary" id="text-0"></path></svg></g></svg></g></svg></g></svg></g><g></g></svg></g></svg></g></svg></g><defs></defs></svg><rect width="320" height="360" fill="none" stroke="none" visibility="hidden"></rect></g></svg></g></svg>